<?xml version="1.0" encoding="UTF-8" standalone="no"?>
<svg viewBox="0 0 150 127.63419" xmlns="http://www.w3.org/2000/svg">
<defs>
<filter height="1.26663" id="filter3925" width="1.2182" x="-.1091" y="-.13332">
<feGaussianBlur stdDeviation="1.45469"/>
</filter>
</defs>
<g transform="matrix(3.84788,0,0,3.84788,-1448.27969,-758.13708)">
<path d="m381.875,200.51844c-1.108,0-2,.8229-2,1.84375v16.8125c0,1.02085.892,1.84375 2,1.84375h1.1875c-.44149,1.94591-1.39306,3.82125-2.3125,5.6875 2.3645-1.62743 4.14796-3.39999 5.6875-5.6875h.0937 23.3438c1.108,0 2-.8229 2-1.84375v-16.8125c0-1.02085-.892-1.84375-2-1.84375h-28z" fill="#7a7a7a" filter="url(#filter3925)"/>
<path d="m380.625,198.375c-1.108,0-2,.8229-2,1.84375v16.8125c0,1.02085.892,1.84375 2,1.84375h1.1875c-.44149,1.94591-1.39306,3.82125-2.3125,5.6875 2.3645-1.62743 4.14796-3.39999 5.6875-5.6875h.0937 23.34375c1.108,0 2-.8229 2-1.84375v-16.8125c0-1.02085-.892-1.84375-2-1.84375h-28z" fill="#fff" stroke="#000" stroke-linecap="round" stroke-linejoin="round" stroke-width=".25988"/>
</g>
</svg>
