<?xml version="1.0"?>
<svg width="500" height="240" xmlns="http://www.w3.org/2000/svg">
 <defs>
  <linearGradient fill="#666666" transform="translate(-6,3) translate(14,15) " x2="0" id="XMLID_1_">
   <stop/>
   <stop offset="1"/>
  </linearGradient>
  <linearGradient fill="#666666" transform="translate(-6,3) translate(14,15) " x2="0" id="XMLID_3_">
   <stop stop-color="#d5ba6e"/>
   <stop stop-color="#fcfca1" offset="1"/>
  </linearGradient>
  <linearGradient fill="#666666" transform="translate(-6,3) translate(14,15) " x2="0" id="XMLID_5_">
   <stop stop-color="#ffffad"/>
   <stop stop-color="#f2f2f2" offset="1"/>
  </linearGradient>
  <linearGradient fill="#666666" transform="translate(-6,3) translate(14,15) " x2="0" id="XMLID_39_">
   <stop stop-color="#ffffff"/>
   <stop stop-color="#ffffff" offset="1"/>
  </linearGradient>
 </defs>
 <g>
  <switch>
   <g>
    <g id="Layer_1">
     <g>
      <path d="m407.002014,117.726997l-3.977997,3.783005l-3.588013,2.716995l-3.299988,2.425003l-4.169006,2.42701l-2.425995,0.967987l-3.007996,0.968994l-3.39502,0.583008l-3.59198,0.291l-6.403015,0.389999l-6.303986,0.386993l-6.694,0.192017l4.85199,21.149994l0.582001,2.229004l-0.582001,2.814987l-1.067993,2.13501l-2.134003,2.908997l-2.134003,1.457993l-14.164001,8.147003l-1.940002,0.290009l-2.134003,0.776001l-2.618988,0.291992h-2.813019l2.618011,2.13501l3.200989,2.133987l5.529022,2.718002l8.342987,4.654007l1.552002,0.968002l9.312988,8.536987l1.457001,1.848007l4.365021,7.177994l1.938995,6.596008l0.875,1.938004v1.457001v2.035995l-0.875,2.231995l-1.649994,1.359009l-1.843018,0.482986l-3.298004,-0.581985l-10.475983,-3.395004l-6.209991,-2.328003l-1.64801,-1.457001l-1.845001,-2.716995l-2.911011,-7.470001l-1.842987,-0.969009l-3.686005,-3.685989l-32.886993,-13.195999l-1.355011,-1.06601l-0.682983,-1.645996l-1.26001,-4.559998l-5.143005,-21.150009l26.194,2.718002h6.304993l5.919006,-1.067001l6.014008,-2.326996l1.067993,-0.873993l0.774994,-1.844009l-0.485992,-1.841995l-1.161011,-2.427002l-2.328979,-3.686005l-3.688995,-4.85199l-2.52002,2.523987l6.013,6.013016l0.485016,1.358994l-0.289001,1.841995l-0.869019,1.361008l-2.425995,1.552002l-4.65802,1.743988l-8.146973,2.524002l-26.388,-2.811996l-23.184998,-0.192993l5.819,3.29599l5.821991,1.94101l4.36499,-0.192001l3.394989,-2.040009l3.97702,-2.618988l5.143005,21.051987l-7.372009,2.71701l-5.725006,0.776001l-3.877991,-0.197006l-4.463989,-0.968994l-3.978027,-1.453003l-5.530975,-3.591995l-5.527008,-3.783005l-17.753998,-7.272995l-1.262009,-1.067001l-0.386993,-1.358002l0.582001,-2.327011l1.164001,-1.940994l2.715988,-1.940994l3.684998,-0.875l-1.647003,-2.618011v-2.034988l0.775024,-1.94101l6.5,-13.873001l0.482971,-2.618988l-0.289978,-3.007996l-0.970001,-2.422012l-1.550995,-2.425995l-2.426025,-1.941002l-3.589966,-1.553001l-34.438019,-9.312996l-3.977005,-1.747002l-4.850998,-2.813004l-3.300003,-2.813995l-4.557999,-5.528l-5.431992,-1.554001l-5.044998,-0.581001l-6.402008,0.097l-6.306,0.874001l-25.416992,6.692001l-28.813004,5.626999l-13.582001,1.651001l-11.834,1.162994l-9.896004,0.583l-7.858002,-0.583l-6.306,-0.774994l-4.170998,-0.486l-4.461998,-1.067001l-3.493004,-1.260002l-3.686996,-1.554001l-16.297001,-8.632996l-3.007999,-1.067001l-3.492001,-0.388l-3.589001,0.875l-8.052,4.947998l-5.142,2.036003l-3.007,0.388l-2.523001,-0.388l-1.841999,-1.067001l-2.325,-2.819l-0.969,-2.715004l-0.196,-3.297997l0.971,-3.493004l1.552001,-2.425995l2.230999,-2.618004l3.687,-2.620995l8.052,-3.686005l4.851002,-1.650993l3.298,-0.67701l3.589001,-0.291l4.559998,1.16301l6.5,3.201996l7.470001,3.298996l3.297997,1.453003l5.043999,1.554001l5.141998,1.455002l6.985008,1.067001l6.597,0.775993l9.797997,-0.775993l14.357002,-1.844002l28.908989,-5.432999l44.722015,-11.252007l5.819992,-1.065994l4.268997,-0.581001l4.850006,-0.195l8.925003,-9.313l6.694,-6.791l6.789993,-6.985001l7.568008,-6.692001l2.327988,-1.746998l1.068008,-0.875004l1.356995,-0.580997l1.649002,-0.583l19.5,-5.626999l8.440002,-1.843002l5.333008,-1.357998l7.082001,-1.164001l6.789978,-0.971001l7.471008,-0.678999l9.21701,-0.483999h9.604004l8.049988,0.970999l6.209015,0.969999l6.694,1.745001l7.371979,2.524l17.46402,7.759003l9.213989,2.813995l16.589996,0.875004l2.618011,0.288998l2.618988,0.583l8.054016,1.939003l2.424988,0.583l2.714996,0.195l2.230988,-0.195l1.843018,-0.583l8.343994,-3.202003l8.345001,-3.977001l6.596008,-3.201l6.402985,-2.423996l7.274017,-2.134003l-2.425995,4.269001l-1.746002,3.878002l-11.542999,9.796997l-3.590027,5.531002l-2.71698,7.277l-1.744995,8.146999l-0.390015,12.223l0.682007,11.253998v6.984001l-1.358002,9.120003l-1.067993,4.172997l-2.524994,4.849998z" stroke-miterlimit="2.414" stroke-linejoin="bevel" stroke-width="0" stroke="#000000" fill="#666666" fill-rule="evenodd"/>
      <path d="m452.597992,19.165001l0.679993,1.164l0.484009,1.358l2.32901,-0.679001l1.649994,-0.486l1.743988,0.486l1.06601,0.581001l0.971008,1.261999l0.484985,1.843l1.161987,1.550999l3.689026,1.554001l2.714996,2.134001l6.692993,5.237997l2.326996,2.134003l1.457001,1.938999l0.873016,1.650002l0.776978,1.843998l0.192993,2.814003l0.484009,2.326996l6.014008,5.627003l1.747009,2.134998l1.259979,1.939003l0.874023,1.358997l0.483978,1.355999l0.292023,1.165001l-0.776001,0.969002l-5.819,7.374001l-0.973022,0.583l-1.161987,0.195l-4.17099,-0.583l-0.776001,0.871994l-0.292023,1.358002l1.456024,1.359009l0.482971,1.163994v1.456001l-0.482971,1.552994l-0.970001,1.162003l-1.263,0.778l-1.553009,0.388008l-1.358002,-0.193001l-1.937988,-0.583008l-6.209015,-2.330002l-4.171997,-0.871994l-3.006989,-0.388l-5.141998,-0.098999l-2.231018,0.098999l-2.230988,0.583l-2.813019,0.967995l-2.812988,1.067001l-2.911011,1.554008l-4.559998,3.200996l-4.945984,4.169998l-6.597015,7.082001l-6.791992,7.665001l-12.125,15.809998l2.32901,-8.437996l1.358002,-13.000999l-1.358002,-12.610001l-0.681,-11.931007l2.039001,-9.411995l3.102997,-10.476002l4.171997,-5.528999l7.373993,-5.335999l3.588013,-5.239002l4.17099,-4.169998l3.105011,-1.843l1.065979,-2.038l1.164001,-1.554001l2.718018,-2.618999l2.812988,-2.813999l2.328003,-1.841999l2.427002,-0.970001l2.230011,0.195l1.747986,0.970001z" stroke-miterlimit="2.414" stroke-linejoin="bevel" stroke-width="0" stroke="#000000" fill="#666666" fill-rule="evenodd"/>
      <path d="m350.541992,43.514999l-2.714996,-1.842999l-7.665009,-5.239002l-4.945984,-2.91l-3.978027,-1.941999l-4.946991,-1.743999l-5.432983,-1.456999l-7.857025,-1.164001l-7.761993,-0.872l-8.440002,-0.487l-14.358978,0.972l-16.878998,3.200998l-0.872009,2.426003l-1.552002,2.327l-1.648987,1.259998l-2.426025,0.584999l-1.842987,-0.195l-1.164978,-0.971001l-0.290009,-1.842995l0.195007,-1.455002l-14.554016,3.685997l-0.582001,2.327003l-1.162994,1.458l-1.940002,1.065998h-1.940994l-0.872009,-1.065998l-0.194992,-1.263004l-7.567001,3.105003l2.134995,0.875l1.455994,1.066998l0.582001,1.648003v1.940998l-0.872986,1.259998l-1.940002,0.874004l-2.13501,-0.195l-2.521988,-1.358002l-1.06601,-0.68l-1.940002,3.201l-1.356995,0.388l-1.457001,-0.388l-3.201004,2.134998l-1.261002,2.038002l-7.661987,10.767994l-1.94101,4.753006v4.172005l0.971008,3.490997l2.036987,4.947998l3.104004,3.200996l3.201996,1.554001l4.752014,0.969002h1.649994l3.104004,-0.969002l4.36499,2.424004l2.912003,3.200996l4.462006,1.262001l5.431992,-0.291l-2.521988,2.910004l-1.261002,2.133995l0.388,2.134003l1.164993,0.776001h1.356995l2.13501,-0.292l12.707001,-5.916l-0.581024,4.267998l-0.970978,1.940002l-1.06601,1.262001l1.06601,1.550995h2.71701l2.910004,0.970001l1.842987,2.231003l0.484009,3.783997l3.686981,1.551003l2.911011,1.164001l5.23999,5.043999l1.358002,2.622002l0.484009,1.645996l-1.649017,1.847l-3.590973,0.678001h-3.688019l0.973999,2.232002l4.362,2.519989l0.582001,1.650009l-0.967987,1.552002l-1.263,0.969009l-3.201019,1.747986l-5.81897,7.372009l-3.58902,4.460999l-0.291992,1.649994l0.679993,1.358002l0.971008,1.065994l1.937988,0.584l2.912994,-0.098999l17.360016,-2.228989l18.725983,-0.583008l-6.210999,1.843002l0.390015,0.968994l2.03598,0.582001l12.223022,-2.134003l3.397003,-0.192993l3.395996,0.677994l7.953979,3.201004l2.619019,0.968994l0.873993,-0.968994l0.484009,-1.065994l-1.649017,-3.005005l-0.970001,-1.166l-1.358002,-1.164993h2.13501l4.85199,5.434998l2.327026,0.873001l2.326996,0.095001l2.233002,-1.06601l0.191986,-1.552994l-0.191986,-1.06601l-3.785004,-4.752991l3.009003,1.940994l1.355988,1.067001l0.778015,0.969009l0.289001,1.357986l1.162994,-1.357986l0.291992,-0.875l-0.484009,-1.358002l-1.259979,-1.354004l-3.59201,-3.59201l-10.571991,-5.334991l-2.331024,-0.774994l-2.036987,-0.875h-2.812012l-2.134979,0.483994l-16.58902,3.784012l-2.714996,0.389984l-3.006989,-0.191986l-2.71701,-0.681l-2.910004,-3.39502l-1.358978,-1.551987l-2.618011,-1.067001l-2.621002,-0.291l-2.714996,-1.067001v-1.55101l3.299011,-0.875h2.422974l1.942017,0.386002l2.424988,0.973007l-1.164978,-2.716995l-1.26001,-1.843002l-1.747009,-1.843002l-2.329987,-1.166l-2.52002,-0.874001l2.231018,-1.161995l1.645996,-0.098999l1.358002,0.292l0.971985,0.775993l2.038025,-13.872993l0.291992,-2.910004l-0.196014,-3.008003l-0.871979,-1.647995l-1.06601,-2.135002l-1.94101,-0.583l-1.941986,0.098999l-1.938019,0.484001l1.06601,-3.103996l1.455994,-1.940002l2.71701,-1.066002l2.520996,-0.679001l2.231018,0.484001l3.299988,-5.626999l2.036011,-4.073997l1.550995,-4.073997l0.291992,-2.03801l0.194,-2.618996l-0.582001,-3.200996l-0.582001,-1.747002l-3.007996,-11.351002l-3.200989,-9.701l-1.650024,-1.550999l-1.453003,-1.262001l-3.783997,-1.648003l-3.686005,-1.163998l-7.954987,-1.262001l3.006989,-0.971001l4.559021,-0.875h4.268005l7.084991,0.390003l13.095001,1.842999l13.970001,2.716999l4.072998,0.772999l3.880981,0.778l4.46402,1.263004l6.401001,3.005997l4.65799,2.522003l1.743988,0.289997l2.524017,-0.872997l5.527985,-2.329002l1.456024,-1.454998l2.424988,-1.939003l3.105011,-1.939999l-1.458008,-0.291l-3.493011,-1.549z" stroke-miterlimit="2.414" stroke-linejoin="bevel" stroke-width="0" stroke="#000000" fill="#666666" fill-rule="evenodd"/>
      <path d="m466.471008,29.059l10.864014,7.568998l1.454987,1.648003l0.679016,1.066998l0.681,1.067001l0.578979,1.067001l0.196014,1.261997l0.970978,5.528999l5.044006,4.752003l3.006012,3.396999l1.94101,2.811001l0.580994,0.778l-0.097015,0.871998h-1.261993l-2.519989,-0.288998l-4.076019,-1.166l1.550995,1.454998l0.875,1.456001v1.746002l0.388,0.970993l0.971008,1.650002l-1.553986,2.036003l-1.063995,1.067001l-1.94101,0.195l-1.747009,-0.389999l-1.647003,-0.968002l-0.970978,-1.456001l-0.583008,-2.325996l-0.388,-1.747002l0.191986,-1.456001l0.195007,-1.359997l1.648987,-3.006001l3.881012,1.649998l-3.684998,-2.813999l-1.263,-1.165001l-0.971008,-1.647999l-1.259979,-3.104l-0.682007,-1.747002l0.972992,0.485004h1.161011l-0.968018,-0.778004l-0.875,-0.871998l-0.967987,-0.969002l-0.681,-1.454998l-0.290009,-1.554001l-0.872009,-0.193001l-0.971985,-1.650002l-0.678986,-1.166l0.678986,-2.422997l-0.678986,-0.388l-1.358002,0.872002l-0.484009,1.454998l0.191986,1.166l1.262024,1.259998l-0.388,0.486l-0.483002,0.68l-4.85202,1.745003l-2.326996,2.133999l-1.941986,1.650002l-2.520996,1.454998l-2.038025,0.583l-3.783997,0.679001l3.007996,-0.099003h1.942017l1.260986,-0.580997l1.744995,-0.487l3.006012,-2.329002l1.166992,-0.581001l1.744019,0.291l1.649994,0.971004l2.812988,0.580997h2.231018l2.231995,3.589001l1.161987,2.911999l-0.095001,2.135002l-0.681976,1.743999l-0.580017,0.872997l-0.195984,1.650002l0.390991,1.648998l0.582001,1.842999l0.579987,1.455002l-7.079987,-2.229996l-1.649994,-0.192001l-1.843018,0.192001l-14.746002,6.691994l-5.334991,-3.877998l-1.358002,-8.924999l3.104004,-5.626999l-4.946991,-3.104l2.812988,0.388l0.583008,-1.941002l-0.972992,-2.909996l-0.484009,-0.971001l0.484009,-3.298004l0.776978,-2.133999l1.843994,-2.813h-1.64798l3.587006,-2.909996l-1.647003,-0.872002l3.686005,-0.875002l5.432983,-3.588999l1.358002,-0.484001l2.036987,-0.195l2.910004,0.388l2.040009,1.066999z" stroke-miterlimit="2.414" stroke-linejoin="bevel" stroke-width="0" stroke="#000000" fill="#666666" fill-rule="evenodd"/>
      <path d="m448.619995,53.021l0.484009,1.747002l-0.968018,2.133999l-1.066986,3.201l-0.485992,2.230999l0.579987,2.134003l1.554993,2.812996l1.745026,2.233002l0.776001,-1.650002l1.454987,-1.164001l-0.774994,2.520004l1.453979,-1.356003l1.747009,-0.778l2.037018,-0.386002h2.230988l2.036987,0.386002l2.13501,-0.873001l3.200989,-1.163994l1.067993,-0.098999l-2.91098,1.455994l-1.06601,0.777l-0.584015,0.873001l-0.19397,0.679001v0.871994l1.163971,0.583008l0.874023,0.195l2.812988,1.163002l2.714996,1.842995l2.910004,0.971001l2.036987,0.968002l2.232025,0.195l1.260986,-0.289001l0.679993,-0.681999l-0.192993,-0.968002l0.970001,0.776001v0.875l-0.192993,1.647995l-0.971008,1.260002l-1.263,0.775002l-2.03598,0.195007l-2.231018,-0.195007l-2.619995,-0.968994l-3.78299,-1.842003l-3.587006,-0.778l-3.300995,-0.581001l-8.053009,-2.035995l-1.743988,-0.874001l-1.552002,-1.166008l-3.492004,-3.394997l-0.486023,-1.066994l-0.970978,-1.843002l-0.580994,-2.038002l-0.289001,-2.812l0.289001,-2.329002l0.970978,-2.037998l0.580994,-0.581001l0.096008,-0.776001l-0.384979,-0.973h-1.844025l-2.134003,0.778l-1.554993,0.872002l-1.260986,1.457001l-1.552002,2.521999l-0.776001,1.841v2.038002l0.388,1.746002l0.971008,3.784996l0.582977,1.841995l0.289001,2.23101l0.196014,2.133995l-0.776001,3.492996l-0.873993,2.134003l-0.872009,2.135002l-1.554016,2.035995l-2.617981,2.621002l-5.920013,5.431999l0.390991,-2.618996l-1.940979,-2.813004l-2.618011,-1.843002l-1.649994,-1.941994l-0.967987,-2.134003l-0.292023,-2.326996l0.872009,-4.755005l2.911011,-6.5l4.17099,-6.208l3.687012,-3.978001l3.299988,-2.716999l2.618011,-1.841999l2.522003,-1.260002l2.133972,-0.487l2.910004,-0.290001l2.813019,0.388l1.358002,1.356003l0.774994,1.072998z" stroke-miterlimit="2.414" stroke-linejoin="bevel" stroke-width="0" stroke="#000000" fill="#666666" fill-rule="evenodd"/>
      <path d="m303.686005,95.512001v-2.038002h-1.063995l-0.487,-1.551003l0.390991,-1.550995l0.579987,-1.067001l-0.970978,-1.554001h-1.647003l0.483002,-2.519997l0.097992,-3.107002l-0.097992,-3.006004l-0.483002,-3.394997l-0.971008,-2.328995l-0.388,-1.067001l4.463013,-3.395004l-4.753998,-0.291l4.267975,-1.552994l1.068024,-1.261009l-0.582001,-1.940994l-0.970001,-1.067001l-2.330017,-1.356998l-2.326996,-0.872002l-2.231995,-0.389999l4.266998,-2.618999l-2.714996,-0.679001l2.230011,-2.035999l-5.432007,-3.107002l-0.971008,-0.580997l-3.201996,-4.269001l0.098999,-1.355999l0.968994,-0.778004l2.233002,-0.483997l1.743988,0.775002l1.358002,1.842999l1.843018,1.259998l2.617981,-0.290001l1.358002,-0.387997l3.881012,-2.716999l5.627991,0.583l3.492004,0.775997l2.424011,0.485001l5.43399,1.457001l-2.424988,0.581001l-0.196014,0.486l-0.579987,1.066998l-2.231995,1.161999l-0.968018,0.778l-0.192993,1.164001l0.483002,2.133999l2.716003,0.971001l2.425995,-0.390999l1.647003,-1.452999l0.776001,-1.749001l0.681,-0.969002h0.776001l-0.195007,-1.357998l1.066986,-0.581001h1.263l3.394012,0.772999l1.842987,0.875l2.813019,2.038002l2.328979,2.23l-2.328979,1.842999l-2.037018,1.747002l-2.812988,3.394001l-2.134003,3.688004l-2.522003,4.752991l-1.454987,1.845001l-1.358002,1.357002l-2.32901,1.650002l-11.35199,4.655998l-2.035004,0.776001l-1.166016,0.775002l-0.676971,0.971001v1.841995l0.676971,2.135002l2.81601,8.246002l-3.882996,-2.038002l-0.580994,2.038002l-0.971008,0.679001l-0.580994,-0.678001z" stroke-miterlimit="2.414" stroke-linejoin="bevel" stroke-width="0" stroke="#000000" fill="#666666" fill-rule="evenodd"/>
      <path d="m400.505005,71.841995l1.552002,-3.201996h1.451996l1.553009,-0.774994l1.164001,-1.263l0.195984,-1.744003l-1.554993,-0.974003l-1.550995,0.388004l-0.969025,1.360001l-0.681976,0.871994l-0.580994,-3.393997l-2.134003,-5.043999l-0.486023,-2.233002l-0.386993,-1.841999l1.164001,0.583l1.356995,-0.292l0.774017,-0.484001l0.291992,-1.457001l-0.580994,-0.676998l-1.358002,-0.099003l-1.261993,0.583l-0.969025,-0.389999l-0.483978,-0.871998l0.095978,-1.067001l0.582001,-0.871998l1.06601,-0.679005l1.457001,-0.388l1.453003,0.388l1.457001,0.194l1.743988,0.680004l1.843018,0.192997l1.554993,-0.387997l0.774994,-1.263004l-0.388,-1.162998l-1.552002,-2.813999l2.522003,-0.969002l2.714996,-1.262001l3.299011,-1.550999l0.872009,0.679001v1.355999l0.195984,1.263l0.968018,0.583l2.134979,-0.291l1.358002,-1.163998l0.583008,-1.067001l0.192993,-0.875l-0.583008,-2.327l2.32901,-1.553001l2.32901,-0.776001l1.648987,-0.484001l2.036011,0.291l1.455994,1.164001l0.872009,1.067001l-0.192993,1.358002l-1.261017,1.550999l-6.692993,4.561001l3.686005,-0.487l3.007996,0.292l2.714996,0.195l1.067993,0.484001l0.580017,0.775997v1.647999l-0.775024,1.941002l-5.140991,4.561001l-1.356995,1.454998l-2.424988,3.202l-2.81601,3.977001l-2.910004,4.269005l-3.102997,6.014999l-0.971008,2.423996l-0.774994,3.201996l-0.389008,3.589005l0.485016,3.299995l1.648987,8.439003l-0.191986,3.396004l-0.486023,3.489998l-0.777985,3.395996l-2.131989,4.269005l-1.554016,2.909996l-2.812012,3.105003l-2.909973,3.394997l-2.718018,2.231003l-3.490997,2.524002l-3.01001,2.035995l-2.811981,1.261002l-3.201019,1.358002l5.529022,-3.586998l2.230988,-2.331001l1.358002,-2.133003l-1.553009,-0.971001l-4.463989,-0.872002l1.166992,-1.162994l-2.134979,-0.388v-1.459l-0.391022,-1.456001l-1.355988,-0.484001l-1.845001,-0.583l-1.938019,-0.193001l-1.357971,-0.971001l-0.971008,-0.581001l-2.037994,-0.195l4.169983,-1.649994l1.846008,0.583l2.424011,0.68l2.133972,-0.68l1.94101,-1.163002l0.583008,-1.650002l-0.194,-1.843002l-0.681,-0.871994l4.562012,-5.143005l1.259979,-2.425995l1.06601,-2.230003l1.165009,-3.781998l0.583984,-3.493004l0.093994,-2.229996l-0.385986,-2.813004l-2.618011,-7.957001v-2.036003l0.006012,0z" stroke-miterlimit="2.414" stroke-linejoin="bevel" stroke-width="0" stroke="#000000" fill="#666666" fill-rule="evenodd"/>
      <path d="m351.515015,47.879997l-3.106995,1.843002l-3.102997,2.813l-2.619019,2.330002l2.425995,0.094997l0.485016,1.165001l-0.485016,1.164001l-4.948975,3.395l-2.910004,2.813l-5.529022,6.889999l4.27002,-2.329002l3.296997,-1.357002l5.04599,-1.261993l-5.23999,2.618996l-2.229004,1.941002l-4.561005,6.013l-4.267975,3.104996l-3.59201,0.872009h-1.162018l-3.687988,0.290993l-6.399994,1.554001l-1.359009,1.067001l-0.873993,2.329002l0.098999,5.042l2.134979,7.469994l3.684998,9.993004l7.372009,11.641998l5.919006,7.276001l6.787994,11.640999l1.94101,2.23201l3.201996,0.968994l7.082001,-0.582993l-2.621002,4.269989l4.756012,2.134003l-2.13501,2.134003l3.006989,0.390991l2.908997,0.969009l3.009003,3.882996l0.968018,4.169998l-5.625,-2.623001l-2.71701,1.067001l-3.588989,3.298996l-4.85202,3.108002l-8.342987,-0.973999l-2.520996,0.197006l-1.843994,0.776001l-3.201019,2.617996l-3.684998,1.065994l-1.166992,1.261002l-0.38501,3.492004l0.38501,0.970001l1.166992,1.164993l1.162018,0.776001l15.424988,-0.677994l2.13501,-0.391006l9.895996,-4.074997l6.306,-3.492004l2.425995,-1.645996l1.841003,-1.649002l1.358002,-1.843002l0.487,-1.748993l0.290009,-3.201004l-0.290009,-3.201004l-6.598999,-21.145996l-9.21698,-19.500999l-2.230011,-0.872002l-1.746002,-0.292h-0.872009l-3.397003,0.292l2.618988,-2.037994l1.554016,-0.097l2.134003,0.388l-2.619995,-4.751999l-1.938995,-1.942001l-3.201019,-1.842003l-3.006989,-1.164001l-3.200989,0.484001l-2.427002,1.262001l-5.335022,-3.588997l-4.656006,-1.164001l0.486023,-3.201004l1.842987,-1.938995l2.618988,-0.098999l2.71701,-0.291l3.102997,1.065994l5.335999,3.396004l-8.147003,-11.059998h1.844025l2.424988,1.066994l4.653992,4.656006l4.753021,6.403l2.523987,3.490997l2.326996,0.68l7.373016,0.096001l2.423981,0.875l2.911011,2.231003l4.753998,4.752998l3.105011,1.457001l6.888,0.193001l4.559998,-0.583l3.781982,-1.260002l7.56601,-3.493004l5.819,-3.685997l2.330017,-2.329002l1.454987,-2.326996l1.552002,-2.621002l0.773987,-3.005997l0.197021,-2.231003l0.386993,-2.134003l-0.386993,-2.716995l-0.681,-3.976997l-1.067017,-4.074005l-0.968994,-2.909996l-5.726013,-10.091003l-2.423981,-4.073002l-1.845001,-4.557999l-0.776001,-2.911999l0.487,-3.784l-6.983002,-2.617001l-3.882996,-1.262001l-2.910004,-0.583h-2.812988l-5.335022,0.487003l-6.886993,0.580997l-2.815002,0.487l-3.104004,1.355999l-2.326996,1.258999z" stroke-miterlimit="2.414" stroke-linejoin="bevel" stroke-width="0" stroke="#000000" fill="#666666" fill-rule="evenodd"/>
      <path d="m451.143005,30.417999l0.484009,-2.037998l0.485992,-2.134001v-1.552l-0.291992,-1.551001l-0.582001,-0.678999l-0.968994,-0.776001h-1.262024l-1.263,0.776001l-0.871979,0.872l-1.358002,1.747l-2.714996,3.396l1.842987,-4.268999l-4.559998,3.005999l2.71701,-2.714001l2.03598,-2.232998l2.037018,-1.747002l1.647003,-0.775l1.358978,-0.097l1.262024,0.097l1.164001,0.775l0.678986,1.166l0.580994,1.843l0.195007,1.648001l0.872009,2.037998l-1.261017,1.843002l-2.227997,1.357998z" stroke-miterlimit="2.414" stroke-linejoin="bevel" stroke-width="0" stroke="#000000" fill="#666666" fill-rule="evenodd"/>
      <path d="m313.290985,31l-1.162994,1.358002l-1.260986,0.581001l-1.846008,0.291996h-2.230011l-1.455994,-0.871998l-0.483002,-1.359001l0.968994,-1.066999l1.358002,-0.387001h2.619995l1.843994,0.679001l1.64801,0.775z" stroke-miterlimit="2.414" stroke-linejoin="bevel" stroke-width="0" stroke="#000000" fill="#666666" fill-rule="evenodd"/>
      <path d="m463.753998,29.351h1.455017l1.261993,0.388l0.388977,0.969999l-0.777985,0.388h-0.678009l-0.776001,-0.388l-0.873993,-1.358z" stroke-miterlimit="2.414" stroke-linejoin="bevel" stroke-width="0" stroke="#000000" fill="#666666" fill-rule="evenodd"/>
      <path d="m293.597992,33.230999l-1.64801,-0.483997l-0.388,-0.971003l0.774994,-1.455l1.551025,-0.095999l1.457001,0.289l1.845001,0.875l-0.391022,1.260002l-1.260986,0.195l-1.940002,0.386997z" stroke-miterlimit="2.414" stroke-linejoin="bevel" stroke-width="0" stroke="#000000" fill="#666666" fill-rule="evenodd"/>
      <path d="m445.612,38.567001l-2.229004,2.327l-1.165985,0.389999l-0.483002,0.193001l-0.972015,-0.583l-0.487,-1.744999l-0.190979,-1.554001l0.095978,-1.359001l0.291992,-1.646999l0.679016,-1.941998l1.066986,-1.551003l1.744019,-2.618999l-0.869995,3.490999l-0.583008,2.038l-0.194,1.843002l0.485992,1.745998v0.68l0.776001,0.484001l2.035004,-0.192001z" stroke-miterlimit="2.414" stroke-linejoin="bevel" stroke-width="0" stroke="#000000" fill="#666666" fill-rule="evenodd"/>
      <path d="m276.912994,31l0.096008,1.358002l-0.775024,1.455997l-1.842987,1.842003l-2.522003,0.775997h-1.550995l-0.778015,-0.679001l-0.289978,-1.162998l1.260986,-1.650997l4.946014,-2.230003l1.455994,0.291z" stroke-miterlimit="2.414" stroke-linejoin="bevel" stroke-width="0" stroke="#000000" fill="#666666" fill-rule="evenodd"/>
      <path d="m286.419006,35.656998l-0.386993,1.359001l-1.06601,1.260002l-1.553986,1.164001l-1.455017,-0.290001l-1.260986,-1.457001v-1.456001l0.192993,-0.872002l1.261017,-1.550999l1.164978,-0.874996h1.843018l1.066986,0.874996l0.194,1.842999z" stroke-miterlimit="2.414" stroke-linejoin="bevel" stroke-width="0" stroke="#000000" fill="#666666" fill-rule="evenodd"/>
      <path d="m320.76001,38.567001l-1.743988,1.162998l-2.813019,-0.580997l-1.552979,-0.973l-0.485016,-0.581001v-1.843002l1.358002,-0.484001h2.230011l2.134979,1.358002l0.872009,1.941002z" stroke-miterlimit="2.414" stroke-linejoin="bevel" stroke-width="0" stroke="#000000" fill="#666666" fill-rule="evenodd"/>
      <path d="m304.658997,37.984001l-1.748993,0.679001h-4.072998l-0.289001,-0.486l0.483002,-1.648003l2.134979,-0.776001l2.811005,0.875l0.682007,1.356003z" stroke-miterlimit="2.414" stroke-linejoin="bevel" stroke-width="0" stroke="#000000" fill="#666666" fill-rule="evenodd"/>
      <path d="m250.817017,40.41l-1.746017,0.875l-2.813995,-1.844997l0.970001,-1.843002h2.814011l0.776001,0.971001v1.841999l0,0z" stroke-miterlimit="2.414" stroke-linejoin="bevel" stroke-width="0" stroke="#000000" fill="#666666" fill-rule="evenodd"/>
      <path d="m323.47699,40.41l0.192993,-1.550999l1.358002,-1.262001l2.233002,-0.968002l1.06601,0.775002v1.747002l-1.06601,0.776001l-3.299988,0.968998l-0.484009,-0.486z" stroke-miterlimit="2.414" stroke-linejoin="bevel" stroke-width="0" stroke="#000000" fill="#666666" fill-rule="evenodd"/>
      <path d="m423.884003,40.506001l0.871002,-0.679001l0.971008,0.099003l0.582977,0.580997l-0.290985,0.778l-0.873993,0.968998l-0.872009,0.292l-0.971008,-0.387997l-0.096008,-0.872002l0.679016,-0.779999z" stroke-miterlimit="2.414" stroke-linejoin="bevel" stroke-width="0" stroke="#000000" fill="#666666" fill-rule="evenodd"/>
      <path d="m337.640991,47.879997l-1.06601,-0.387997l-0.970978,-1.067001l0.194977,-1.162998l0.871002,-0.971001l0.872009,-0.292l2.717987,1.067001l0.969025,1.745998l-1.939026,0.971001l-1.648987,0.096996z" stroke-miterlimit="2.414" stroke-linejoin="bevel" stroke-width="0" stroke="#000000" fill="#666666" fill-rule="evenodd"/>
      <path d="m413.113007,45.841999h1.06601l1.649994,1.067001l0.583008,2.233002l-1.26001,1.259998l-0.973999,0.583l-1.06601,-0.681999l-2.03598,-1.744003l0.388977,-1.746998l1.64801,-0.970001z" stroke-miterlimit="2.414" stroke-linejoin="bevel" stroke-width="0" stroke="#000000" fill="#666666" fill-rule="evenodd"/>
      <path d="m258.286987,53.408001v-1.260002l0.774994,-1.261997l3.493011,-1.938999l1.358002,-0.292004l-0.098999,2.715l-1.940979,1.262001l-1.841034,1.166l-0.970978,0.388l-0.774017,-0.778z" stroke-miterlimit="2.414" stroke-linejoin="bevel" stroke-width="0" stroke="#000000" fill="#666666" fill-rule="evenodd"/>
      <path d="m367.423004,53.408001l-3.300018,-0.388l-3.297974,-0.484001l-1.64801,-0.583l0.583984,-1.261997l2.035004,-1.065002h1.844025l1.84198,0.971001l1.94101,2.811001z" stroke-miterlimit="2.414" stroke-linejoin="bevel" stroke-width="0" stroke="#000000" fill="#666666" fill-rule="evenodd"/>
      <path d="m420.683014,50.209l2.035004,-0.874001l1.648987,-0.292l1.067993,0.292l0.679016,0.679001l-0.097015,0.872002l-0.774994,0.678997l-6.112,1.941002l-0.582001,-0.194l0.968018,-1.747002l1.166992,-1.355999z" stroke-miterlimit="2.414" stroke-linejoin="bevel" stroke-width="0" stroke="#000000" fill="#666666" fill-rule="evenodd"/>
      <path d="m348.699005,48.947002l1.165009,0.195l3.493011,1.454998v0.969002l-0.971008,0.969997h-2.71701l-1.64801,-0.969997l-0.291992,-1.456001l0.970001,-1.162998z" stroke-miterlimit="2.414" stroke-linejoin="bevel" stroke-width="0" stroke="#000000" fill="#666666" fill-rule="evenodd"/>
      <path d="m240.632004,51.566002l-0.874008,3.688l-3.78299,2.813999h-2.813004l-0.873001,-0.875l0.291,-1.747002l1.455994,-1.552998l1.940002,-1.162003l1.938995,-1.166h2.71701l0,0.001003z" stroke-miterlimit="2.414" stroke-linejoin="bevel" stroke-width="0" stroke="#000000" fill="#666666" fill-rule="evenodd"/>
      <path d="m313.001007,51.757999v0.875l-0.485992,0.775002l-6.403015,2.134998l-1.259979,-0.290001l-0.776001,-0.970997l0.388,-1.262001l1.455994,-0.872002l7.080994,-0.389999z" stroke-miterlimit="2.414" stroke-linejoin="bevel" stroke-width="0" stroke="#000000" fill="#666666" fill-rule="evenodd"/>
      <path d="m224.139008,56.901001l-1.065994,1.166l-1.94101,0.093998l-1.260986,-0.483997l-0.583008,-0.484001v-1.938999l0.970993,-1.845001l1.746002,-0.583l1.843002,0.583l0.487,1.845001l-0.195999,1.646999z" stroke-miterlimit="2.414" stroke-linejoin="bevel" stroke-width="0" stroke="#000000" fill="#666666" fill-rule="evenodd"/>
      <path d="m252.755981,53.798l0.875031,1.842999l-2.813019,3.686001h-1.745987v-1.746998l1.745987,-3.782001h1.937988l0,0z" stroke-miterlimit="2.414" stroke-linejoin="bevel" stroke-width="0" stroke="#000000" fill="#666666" fill-rule="evenodd"/>
      <path d="m378.96701,53.992001l-4.171997,2.133999l-1.940002,0.485001l-1.842987,-0.776001l-1.163025,-0.679001l-0.483978,-0.871998l0.095001,-0.875l1.164978,-0.775002l3.201996,0.775002l1.939026,0.875l3.200989,-0.292z" stroke-miterlimit="2.414" stroke-linejoin="bevel" stroke-width="0" stroke="#000000" fill="#666666" fill-rule="evenodd"/>
      <path d="m411.854004,55.154999l0.678986,1.359001l-0.579987,1.164001l-1.94101,1.261997l-2.134979,0.388h-1.358002l-0.874023,-0.871998v-0.778l0.486023,-1.164001l1.552979,-0.487l1.940002,-0.581001l2.230011,-0.291z" stroke-miterlimit="2.414" stroke-linejoin="bevel" stroke-width="0" stroke="#000000" fill="#666666" fill-rule="evenodd"/>
      <path d="m459.584015,59.91l-3.783997,-1.940998l-0.972015,-0.581001l0.097992,-1.263l1.165009,-0.292l1.164001,0.583l2.32901,3.493999z" stroke-miterlimit="2.414" stroke-linejoin="bevel" stroke-width="0" stroke="#000000" fill="#666666" fill-rule="evenodd"/>
      <path d="m272.256012,58.938999l-2.13501,1.260002l-1.845001,0.875l-5.912994,0.774998l-0.973999,-0.292l-0.291992,-1.647999l2.040009,-2.231998l2.812988,-1.067001l2.910004,-0.193001l2.036987,0.677002l1.359009,1.844997z" stroke-miterlimit="2.414" stroke-linejoin="bevel" stroke-width="0" stroke="#000000" fill="#666666" fill-rule="evenodd"/>
      <path d="m331.915985,57.193001l-1.259979,3.006001l-1.552002,0.875l-1.455017,-0.097h-1.845001l-1.551971,-0.971001v-1.067001l0.873993,-0.971001l1.552002,-0.387997l3.200989,-0.388h2.036987l0,0.000999z" stroke-miterlimit="2.414" stroke-linejoin="bevel" stroke-width="0" stroke="#000000" fill="#666666" fill-rule="evenodd"/>
      <path d="m356.169006,57.193001l-4.074005,2.618l-0.970978,0.388l-1.162018,-0.193001l-0.681,-0.970001l0.389008,-0.968998l1.45401,-1.457001l1.358002,-0.583l1.746979,0.098999l1.940002,1.067001z" stroke-miterlimit="2.414" stroke-linejoin="bevel" stroke-width="0" stroke="#000000" fill="#666666" fill-rule="evenodd"/>
      <path d="m449.492004,56.027v1.554001l-0.096008,1.163998l-0.776001,0.778h-1.165009l-0.580994,-0.778l0.097015,-1.454998l0.678986,-0.872002l1.067993,-0.776001h1.745026l-0.971008,0.385002z" stroke-miterlimit="2.414" stroke-linejoin="bevel" stroke-width="0" stroke="#000000" fill="#666666" fill-rule="evenodd"/>
      <path d="m277.785004,56.805l1.06601,0.583l0.871979,1.259998l-0.871979,1.262001l-1.262024,0.290001l-1.552002,-0.290001l-0.967987,-0.970001l0.967987,-0.871998l0.776001,-0.875l0.972015,-0.388z" stroke-miterlimit="2.414" stroke-linejoin="bevel" stroke-width="0" stroke="#000000" fill="#666666" fill-rule="evenodd"/>
      <path d="m440.763,79.895004l-6.984985,5.334999l2.036987,-3.202003l1.747009,-2.524002l0.970001,-2.231003l0.192993,-2.328995v-1.747002l-0.388,-2.423004l-0.774994,-2.326996l-0.971008,-2.523994l-0.583008,-2.426003v-2.036003l0.583008,-2.133999l0.971008,-1.166l1.162994,-1.452l0.195007,4.073002l0.580994,2.618999l1.457001,3.589005l1.355988,2.037994l1.746002,2.813995l0.583008,1.746002l-0.192017,1.939003l-0.682983,1.745995l-1.26001,1.067001l-1.744995,1.555008z" stroke-miterlimit="2.414" stroke-linejoin="bevel" stroke-width="0" stroke="#000000" fill="#666666" fill-rule="evenodd"/>
      <path d="m246.257004,64.563995l-1.067001,1.166l-4.268005,1.067001l-1.164001,-0.389999l-0.970001,-1.843002l0.388,-1.840996l1.456009,-1.940998l2.813004,-0.873001l1.842987,0.873001l0.581009,1.745998l0.388,2.035995z" stroke-miterlimit="2.414" stroke-linejoin="bevel" stroke-width="0" stroke="#000000" fill="#666666" fill-rule="evenodd"/>
      <path d="m229.570999,63.791l-0.968994,1.259995l-0.971008,0.388l-1.841995,-0.875v-1.938995l1.841995,-2.715l2.522003,-1.262001l-0.582993,3.103001v2.040001l0.000992,0z" stroke-miterlimit="2.414" stroke-linejoin="bevel" stroke-width="0" stroke="#000000" fill="#666666" fill-rule="evenodd"/>
      <path d="m389.734985,62.625l-0.291992,1.455002h-2.618988h-2.71701l-1.164001,-0.195004l-2.32901,-1.454998l-0.191986,-0.192001l0.098999,-0.874001l0.774994,-0.580997h4.656006l3.78299,1.841999z" stroke-miterlimit="2.414" stroke-linejoin="bevel" stroke-width="0" stroke="#000000" fill="#666666" fill-rule="evenodd"/>
      <path d="m318.821014,60.782001l0.388,0.873997l-0.388,1.067001l-6.403992,2.715004l-1.84201,-0.292007l-0.487,-0.873993l0.195984,-1.549004l0.872009,-1.067001l1.457001,-0.389999l4.945007,-0.583l1.263,0.099003z" stroke-miterlimit="2.414" stroke-linejoin="bevel" stroke-width="0" stroke="#000000" fill="#666666" fill-rule="evenodd"/>
      <path d="m361.79599,64.563995l-0.971008,1.650009l-2.22998,1.259995l-1.455017,-0.093994l-0.971008,-1.94101l0.776001,-0.970993l2.909027,-0.872002l1.941986,0.967995z" stroke-miterlimit="2.414" stroke-linejoin="bevel" stroke-width="0" stroke="#000000" fill="#666666" fill-rule="evenodd"/>
      <path d="m270.411011,66.407997l-2.908997,1.844002l-4.945984,0.969002h-1.458008l-0.968018,-0.969002l0.968018,-1.844002l2.427002,-0.484993h2.425995l4.459991,0.484993z" stroke-miterlimit="2.414" stroke-linejoin="bevel" stroke-width="0" stroke="#000000" fill="#666666" fill-rule="evenodd"/>
      <path d="m278.173004,65.729996v1.26001l-2.71701,1.456993l-1.259979,-0.195l-0.970001,-0.871994l0.484985,-0.972008l3.200989,-0.969002l1.261017,0.291z" stroke-miterlimit="2.414" stroke-linejoin="bevel" stroke-width="0" stroke="#000000" fill="#666666" fill-rule="evenodd"/>
      <path d="m321.634003,66.407997l1.26001,1.066002l-0.483002,1.845001l-1.165009,1.164001l-3.492004,1.260002l-0.777008,-0.193001l-0.289001,-0.484001l-0.289001,-0.484001l0.969025,-1.458l1.743988,-1.164001l0.777008,-0.581001l1.744995,-0.971001z" stroke-miterlimit="2.414" stroke-linejoin="bevel" stroke-width="0" stroke="#000000" fill="#666666" fill-rule="evenodd"/>
      <path d="m227.630997,72.809998l-0.679001,-1.356003l0.679001,-2.232994l1.649002,-1.163002l1.164001,-0.192993l1.843994,0.582993l0.873001,0.773003l-0.873001,1.845001l-2.716995,1.939003l-1.940002,-0.195007z" stroke-miterlimit="2.414" stroke-linejoin="bevel" stroke-width="0" stroke="#000000" fill="#666666" fill-rule="evenodd"/>
      <path d="m377.606995,73.876999l-2.036987,-0.772995l-0.580994,-1.455002l0.195984,-1.262001l0.872009,-0.778l4.848999,-1.743996l0.583008,0.192993l0.679993,0.194v0.969002l-0.873016,2.814995l-1.842987,1.841003h-1.846008l0,0z" stroke-miterlimit="2.414" stroke-linejoin="bevel" stroke-width="0" stroke="#000000" fill="#666666" fill-rule="evenodd"/>
      <path d="m305.531006,71.743004l0.580017,-0.969009l1.554993,-0.775993l3.684998,-0.778l1.164001,0.486l0.776001,1.359001l-0.386993,1.259995l-1.166016,0.778l-1.649994,0.290009l-3.97699,-0.485001l-0.580017,-1.165001z" stroke-miterlimit="2.414" stroke-linejoin="bevel" stroke-width="0" stroke="#000000" fill="#666666" fill-rule="evenodd"/>
      <path d="m370.140991,70.191002l0.483002,1.552002l-0.483002,1.262001l-0.971008,0.871994l-1.746979,0.294006l-0.971008,-0.778v-1.067001l0.777008,-1.650009l0.580994,-0.388l1.746979,-0.289993l0.584015,0.193001z" stroke-miterlimit="2.414" stroke-linejoin="bevel" stroke-width="0" stroke="#000000" fill="#666666" fill-rule="evenodd"/>
      <path d="m387.794006,75.915001l-0.484985,-0.583l0.291992,-1.160995l0.873993,-1.554001l2.13501,-1.551003l1.358002,0.191994l0.677002,1.067001l-0.484009,1.359001l-0.776001,0.776001l-2.71701,1.262001l-0.873993,0.193001z" stroke-miterlimit="2.414" stroke-linejoin="bevel" stroke-width="0" stroke="#000000" fill="#666666" fill-rule="evenodd"/>
      <path d="m407.101013,77.272995l-1.552002,0.971008l-1.166016,-0.778l-0.774994,-0.873009l-0.875,-1.842995v-2.714996l0.875,-1.845001h2.036011l0.873993,0.875l0.583008,2.326996l0.192993,2.426003l-0.192993,1.454994z" stroke-miterlimit="2.414" stroke-linejoin="bevel" stroke-width="0" stroke="#000000" fill="#666666" fill-rule="evenodd"/>
      <path d="m261.098022,71.066002l-2.811035,6.5l-1.843994,1.841995l-2.52301,0.292l-1.259979,-0.292l-0.971008,-1.841995v-2.814003l1.649017,-1.553993l3.201965,-1.744011l2.715027,-0.387993h1.843018l0,0z" stroke-miterlimit="2.414" stroke-linejoin="bevel" stroke-width="0" stroke="#000000" fill="#666666" fill-rule="evenodd"/>
      <path d="m242.570999,78.533005l-1.455002,0.679993l-1.358002,0.194l-0.970001,-0.874992v-1.939011l0.970001,-2.716995l1.843002,-1.840996l2.619995,-0.681l0.774002,0.583v1.259995l-2.423996,5.336006z" stroke-miterlimit="2.414" stroke-linejoin="bevel" stroke-width="0" stroke="#000000" fill="#666666" fill-rule="evenodd"/>
      <path d="m358.886993,77.564995l-1.359009,0.96801h-1.358002l-1.259979,-1.066002l0.191986,-1.745003l1.457001,-0.778h2.036011l1.259979,0.778l-0.967987,1.842995z" stroke-miterlimit="2.414" stroke-linejoin="bevel" stroke-width="0" stroke="#000000" fill="#666666" fill-rule="evenodd"/>
      <path d="m285.35199,76.594002l-2.812988,1.939003h-2.815002l-3.686005,-0.96801l-1.84201,-1.842995l0.970001,-0.778l2.13501,-0.388l3.977997,1.067001l4.072998,0.971001z" stroke-miterlimit="2.414" stroke-linejoin="bevel" stroke-width="0" stroke="#000000" fill="#666666" fill-rule="evenodd"/>
      <path d="m191.348999,75.722l-2.037003,3.394997l-0.968994,3.784004l0.483994,2.422997l1.456009,2.522003l-2.813004,0.679001l-2.039001,0.583l-1.550995,0.583v-3.688004l0.483994,-3.200996l1.456009,-3.005997l1.744995,-2.329002l1.843994,-1.745003h1.940002l0,0z" stroke-miterlimit="2.414" stroke-linejoin="bevel" stroke-width="0" stroke="#000000" fill="#666666" fill-rule="evenodd"/>
      <path d="m178.253006,76.594002l5.432999,-0.775002l-1.358994,1.455002l-1.261002,1.260002h-0.970993l-1.84201,-1.940002z" stroke-miterlimit="2.414" stroke-linejoin="bevel" stroke-width="0" stroke="#000000" fill="#666666" fill-rule="evenodd"/>
      <path d="m422.330994,83.190002l-1.843994,-0.969002l-0.581024,-1.358002l0.292023,-1.650002l0.483978,-1.261002l1.64801,-0.387001l0.582001,1.35601v3.299995l-0.291992,0.484001l-0.289001,0.485001z" stroke-miterlimit="2.414" stroke-linejoin="bevel" stroke-width="0" stroke="#000000" fill="#666666" fill-rule="evenodd"/>
      <path d="m165.156006,92.405998l-0.774002,0.776001l-1.552994,0.486l-2.328003,-0.195l-1.843994,-1.939003l-0.097,-1.358994l1.067993,-2.522003l4.656006,-7.275002l3.688004,-2.813004l-2.71701,4.656006l-0.194992,1.260002l-0.291,1.066994l0.097,1.941002l0.485001,3.006004l0.097,1.649994l-0.292007,1.261002z" stroke-miterlimit="2.414" stroke-linejoin="bevel" stroke-width="0" stroke="#000000" fill="#666666" fill-rule="evenodd"/>
      <path d="m174.468994,77.564995l-1.067001,1.455009l-0.097,1.551994l0.388992,1.551003l1.35701,1.358002l3.297989,2.329994l0.680008,0.968002l-0.292007,1.553001l-1.939987,1.843002l-1.359009,0.483994l-1.067993,-0.772995l-1.74501,-3.009003l-0.679001,-2.134003l-0.194,-2.328995v-1.747002l0.873001,-2.134995l1.844009,-0.96701z" stroke-miterlimit="2.414" stroke-linejoin="bevel" stroke-width="0" stroke="#000000" fill="#666666" fill-rule="evenodd"/>
      <path d="m195.035995,77.564995h1.747009l1.940002,0.775002l1.746994,1.939003l2.229996,3.883003l0.776001,2.714996l-0.291,0.872002l-0.679001,0.097l-2.813004,0.874001l0.970001,-2.717003l-0.582993,-2.521996l-0.873001,-1.939003l-1.358994,-2.135002l-2.812012,-1.842003z" stroke-miterlimit="2.414" stroke-linejoin="bevel" stroke-width="0" stroke="#000000" fill="#666666" fill-rule="evenodd"/>
      <path d="m268.375,78.145996l0.484985,2.426003l-2.134979,1.262001l-3.394989,0.679001l-1.358032,-0.292l-0.875,-1.843002l0.875,-1.844994l1.94101,-0.96801h2.812012l1.649994,0.581001z" stroke-miterlimit="2.414" stroke-linejoin="bevel" stroke-width="0" stroke="#000000" fill="#666666" fill-rule="evenodd"/>
      <path d="m152.158997,97.162003l-1.554001,-5.917999l-0.776001,1.357994l-0.774994,1.164001l-1.261002,0.679001l-0.970001,0.193001l-0.970993,-0.582001l-1.16301,2.231003l-1.455994,1.454994l-1.650009,0.875l-1.648987,0.581001l-1.747009,0.388h-2.521988v-2.229996l-0.484009,-2.620003l-0.777008,-2.329002l-1.647995,-2.133995l-2.328995,-1.164001l-2.425995,-0.388l0.872986,-1.843002l1.844009,-0.875h2.327988l2.037018,0.583l2.134995,1.551003l0.582001,1.749001l0.386993,1.647995v2.813004l0.777008,1.067001h2.037003l2.812988,-1.067001l1.844009,-0.875v-1.939003l-0.969009,-3.687996l-1.843994,-2.715004l2.813004,-1.940994v2.812996l1.164993,1.650002l1.552002,0.485001l1.940002,-0.292l1.845001,-0.969002l0.871994,-3.687996l-1.843002,-1.843002l9.313004,-2.814003l-2.522003,2.913002l-2.037003,3.202003l-1.454987,2.909996l-0.681,1.746002l-0.775009,3.102997l-0.873001,4.757004z" stroke-miterlimit="2.414" stroke-linejoin="bevel" stroke-width="0" stroke="#000000" fill="#666666" fill-rule="evenodd"/>
      <path d="m380.421997,79.407997l-1.454987,3.007004l-2.908997,3.104996l-1.846008,1.260002l-2.229004,0.098999l-1.358002,-0.776001l-0.388,-1.454994l0.774994,-1.166l1.940002,-1.260002l1.843018,-1.358002l1.84198,-0.485001l3.785004,-0.971001z" stroke-miterlimit="2.414" stroke-linejoin="bevel" stroke-width="0" stroke="#000000" fill="#666666" fill-rule="evenodd"/>
      <path d="m40.401001,82.222l-2.329002,0.874001l-1.550999,0.873001l-3.879997,2.810997l1.260998,-2.423996l1.650002,-1.260002l1.939999,-0.874001h2.909l0,0z" stroke-miterlimit="2.414" stroke-linejoin="bevel" stroke-width="0" stroke="#000000" fill="#666666" fill-rule="evenodd"/>
      <path d="m340.26001,84.163002l-3.299988,1.067001l-0.968018,-0.778l-0.389008,-1.262001l0.971008,-0.969002l2.326996,-0.193001l1.843994,0.386002l0.290009,1.067001l-0.774994,0.681999z" stroke-miterlimit="2.414" stroke-linejoin="bevel" stroke-width="0" stroke="#000000" fill="#666666" fill-rule="evenodd"/>
      <path d="m388.666992,82.222h1.455994l1.261017,1.260002l0.192993,1.650002l-0.872009,1.259995l-2.32901,1.941002l-0.676971,0.971001l-1.263,0.583l-1.358002,-0.195l-1.164001,-1.359001l0.097992,-1.262001l0.970001,-1.067001l1.553009,-1.454994l1.164978,-1.648003l0.96701,-0.679001z" stroke-miterlimit="2.414" stroke-linejoin="bevel" stroke-width="0" stroke="#000000" fill="#666666" fill-rule="evenodd"/>
      <path d="m404.286987,81.542l1.261993,-0.195l0.968994,0.195l0.389008,1.358002l-0.681,1.455002l-0.871979,0.387993l-1.262024,-0.387993l-0.483978,-1.455002l0.678986,-1.358002z" stroke-miterlimit="2.414" stroke-linejoin="bevel" stroke-width="0" stroke="#000000" fill="#666666" fill-rule="evenodd"/>
      <path d="m51.459999,85.130997l-4.558998,0.484001l-1.940002,0.776001l-1.939999,1.262001l-1.067001,1.940002l-1.939999,3.299995l0.098,-2.521996l0.581001,-2.330002l1.260998,-2.038002l1.747002,-1.260002l1.842999,-0.580994h2.232002l3.683998,0.968994z" stroke-miterlimit="2.414" stroke-linejoin="bevel" stroke-width="0" stroke="#000000" fill="#666666" fill-rule="evenodd"/>
      <path d="m281.567993,84.163002l-4.654999,3.683998l-3.686981,1.553001h-1.457001l-0.386017,-0.679001l0.290009,-1.067001l1.553009,-1.650002l5.625,-1.839996h2.71698l0,-0.000999z" stroke-miterlimit="2.414" stroke-linejoin="bevel" stroke-width="0" stroke="#000000" fill="#666666" fill-rule="evenodd"/>
      <path d="m351.899994,86.877998l-2.230011,0.388h-1.64798l-1.552002,-0.776001l-0.583008,-0.487v-1.260002l1.553009,-0.487l2.521973,-0.386993l2.133026,1.261993l0.485992,0.971001l-0.681,0.776001z" stroke-miterlimit="2.414" stroke-linejoin="bevel" stroke-width="0" stroke="#000000" fill="#666666" fill-rule="evenodd"/>
      <path d="m259.255981,86.877998l-5.624969,4.657005l-2.813019,0.871994l-2.619995,-0.871994l0.874008,-2.814003l1.745987,-1.843002l8.437988,-1.747002l0.874023,0.872002l-0.874023,0.875z" stroke-miterlimit="2.414" stroke-linejoin="bevel" stroke-width="0" stroke="#000000" fill="#666666" fill-rule="evenodd"/>
      <path d="m267.502014,87.847l0.388977,2.912003l-0.388977,1.647995l-2.716003,2.910004l-0.872009,2.812996l-2.523987,1.263l-1.26001,-0.388v-2.813995l2.908997,-7.470001l1.747009,-0.874001h2.716003l0,0z" stroke-miterlimit="2.414" stroke-linejoin="bevel" stroke-width="0" stroke="#000000" fill="#666666" fill-rule="evenodd"/>
      <path d="m62.810997,94.25l-2.038002,2.038002l-1.648994,3.491997l-1.067001,3.881004l-3.396,-4.269005l-0.194,-2.910995l0.874001,-3.008003l2.035999,-2.619003l1.747002,-0.775993l1.746994,-0.388l3.687004,0.968994l1.843002,1.746002l-3.590004,1.845001z" stroke-miterlimit="2.414" stroke-linejoin="bevel" stroke-width="0" stroke="#000000" fill="#666666" fill-rule="evenodd"/>
      <path d="m122.278,95.316002l1.844009,0.875h0.969986l1.940002,-0.875l0.969009,2.812996l-2.910004,1.843002l-0.970001,1.845001l-2.717003,0.776001l0.389,-2.426003l-0.485001,-2.909996l-0.776001,-2.910004l-1.939995,-2.813004l-1.844002,-1.842995h2.813995l1.165001,0.969002l1.067001,1.261993l0.484001,1.551003v1.843002l0,0z" stroke-miterlimit="2.414" stroke-linejoin="bevel" stroke-width="0" stroke="#000000" fill="#666666" fill-rule="evenodd"/>
      <path d="m378.578003,91.338997l0.875,1.358002l-0.485992,1.940002l-1.359009,1.553001l-2.812988,0.971001l-2.13501,-0.292l-0.484009,-0.583l-0.192993,-1.260002l0.970001,-1.554001l2.036987,-1.551003l2.230011,-0.583h1.358002l0,0.000999z" stroke-miterlimit="2.414" stroke-linejoin="bevel" stroke-width="0" stroke="#000000" fill="#666666" fill-rule="evenodd"/>
      <path d="m15.858,99.392998l-0.969999,1.939003l2.521999,0.486l3.59,-0.389999l-3.589001,1.650002l-2.036999,0.483994l-2.038,-0.289993l-1.455,-1.358002l-1.746,-2.134003l-1.067,-3.007996l-0.194,-1.939003l0.776001,-2.134003l1.551,-1.649994l2.813999,-0.872002l-0.68,2.521996v2.038002l0.68,1.940002l0.873001,1.842995l0.969999,0.873001z" stroke-miterlimit="2.414" stroke-linejoin="bevel" stroke-width="0" stroke="#000000" fill="#666666" fill-rule="evenodd"/>
      <path d="m110.151001,91.535004l0.777,1.066994l0.581001,1.939003l-0.387001,3.297997l-0.679001,3.105003l-0.486,1.358002l-1.551003,1.359001l-3.784996,0.871994l1.843994,-1.746994l0.874001,-1.843002l0.097,-1.939003l-0.289993,-1.746994l-0.486,-1.843002l-1.067001,-1.941002l1.842995,-1.939003h2.715004l0,0.001007z" stroke-miterlimit="2.414" stroke-linejoin="bevel" stroke-width="0" stroke="#000000" fill="#666666" fill-rule="evenodd"/>
      <path d="m351.515015,91.535004l-1.358002,0.871994l-1.457001,1.067001l-2.618988,0.487l-2.230011,0.388l-0.774994,-0.875l0.194,-1.067001l1.355988,-0.679001l4.656006,-0.968994l1.165985,0.388l1.067017,0.388z" stroke-miterlimit="2.414" stroke-linejoin="bevel" stroke-width="0" stroke="#000000" fill="#666666" fill-rule="evenodd"/>
      <path d="m392.644989,93.57l0.679993,0.971001l0.096008,1.067001l-2.714996,2.716995l-1.261993,0.68h-1.649017l-0.677979,-0.487l-0.292023,-1.162994l0.970001,-2.039001l0.873016,-0.968002l2.910004,-0.875l1.066986,0.097z" stroke-miterlimit="2.414" stroke-linejoin="bevel" stroke-width="0" stroke="#000000" fill="#666666" fill-rule="evenodd"/>
      <path d="m98.123001,101.818001l-0.097,1.843002l-0.970001,1.162994l-0.872002,1.067001h-3.493996l-1.067001,-0.291l-1.747002,-2.425995l0.292,-1.648003l0.970001,-1.650002l2.329002,-2.714996l-0.776001,-0.778l-0.679001,-0.968002l0.097,-1.359001l1.358002,-0.583l1.745995,-0.385002l1.067001,0.385002l0.874001,0.971001v0.872002l-0.874001,1.845001l-0.970001,1.259995l0.194,1.263l0.776001,1.260002l1.843002,0.874001z" stroke-miterlimit="2.414" stroke-linejoin="bevel" stroke-width="0" stroke="#000000" fill="#666666" fill-rule="evenodd"/>
      <path d="m363.929993,93.57l0.484009,1.165001l-0.192017,1.648003l-1.551971,0.778l-2.71701,0.580994l-1.06601,-0.580994l-0.098999,-1.359001l1.06601,-1.165001l0.971008,-0.677002l1.553986,-0.389999h1.550995l0,0z" stroke-miterlimit="2.414" stroke-linejoin="bevel" stroke-width="0" stroke="#000000" fill="#666666" fill-rule="evenodd"/>
      <path d="m76.683998,94.348l1.940002,0.484001h2.426003l3.976997,-0.484001l-3.782997,2.423004l-2.426003,1.746994l-2.230003,2.522003l-1.262001,2.330002l-1.163994,2.326996l-0.582001,1.746002h-0.874001l-2.617996,-0.096001l0.193993,-4.073997l0.873001,-3.493004l1.164001,-2.424995l1.843002,-1.843002l2.521996,-1.164001z" stroke-miterlimit="2.414" stroke-linejoin="bevel" stroke-width="0" stroke="#000000" fill="#666666" fill-rule="evenodd"/>
      <path d="m403.703003,98.712997l-0.971008,-0.195l-0.872009,-0.968994l-0.288971,-0.583l0.386993,-1.939003l0.970978,-1.358002l1.163025,-0.292l1.552002,1.358002l-0.484009,1.552002l-0.291992,1.746994l-1.165009,0.679001z" stroke-miterlimit="2.414" stroke-linejoin="bevel" stroke-width="0" stroke="#000000" fill="#666666" fill-rule="evenodd"/>
      <path d="m299.515991,100.556l-0.679016,1.359001l-1.455994,-0.097l-2.71698,-0.292l-3.39502,0.193001l2.427002,-1.747002l2.811005,-0.968002l1.457001,0.192001l1.066986,0.388l0.485016,0.972z" stroke-miterlimit="2.414" stroke-linejoin="bevel" stroke-width="0" stroke="#000000" fill="#666666" fill-rule="evenodd"/>
      <path d="m371.981995,102.787003l-1.165009,1.554001l-1.453003,0.871994l-2.424988,0.097l-2.427002,0.291l-2.71701,-1.938995v-0.875l1.067017,-0.581001h1.746979l7.373016,0.581001z" stroke-miterlimit="2.414" stroke-linejoin="bevel" stroke-width="0" stroke="#000000" fill="#666666" fill-rule="evenodd"/>
      <path d="m372.951996,109.189003l-0.192993,-1.359001l1.066986,-1.356003l1.452026,-0.875l1.357971,-1.067001l6.503021,-1.746994l-0.389008,1.165993l-1.066986,1.648003l-1.262024,0.875l-4.655975,2.715004l-2.038025,0.486l-0.774994,-0.486z" stroke-miterlimit="2.414" stroke-linejoin="bevel" stroke-width="0" stroke="#000000" fill="#666666" fill-rule="evenodd"/>
      <path d="m336.574005,111.032997l-0.971008,1.941002h-1.745972l-3.784027,2.814003h2.718018l2.033997,0.679001l1.358002,1.355995l0.390991,2.522003l-1.843018,1.940002l1.843018,3.590996l2.813019,2.521004l3.687988,1.357986l5.625,0.775009l-6.983002,1.748001h-1.747009l-1.649994,-0.487991l-3.587006,-5.044006l-5.626984,-6.402l-2.13501,-2.715004l-1.648987,-4.364998l-0.874023,-4.075996v-3.588005l2.039001,2.814003l2.619019,1.747002l2.326996,0.774994l5.140991,0.097z" stroke-miterlimit="2.414" stroke-linejoin="bevel" stroke-width="0" stroke="#000000" fill="#666666" fill-rule="evenodd"/>
      <path d="m302.134003,105.599998l-1.164001,2.717003l-0.483002,2.229996l0.289001,2.911003l0.583008,3.588997l2.134003,4.077003l-2.134003,-0.972l-1.162994,-1.551003l-0.972015,-2.039001l-0.583008,-2.229996v-2.717003l0.779022,-2.618996l0.970001,-1.747002l1.743988,-1.649002z" stroke-miterlimit="2.414" stroke-linejoin="bevel" stroke-width="0" stroke="#000000" fill="#666666" fill-rule="evenodd"/>
      <path d="m243.444,105.599998h1.261993l0.581009,0.875l-2.716003,2.812004l-0.970993,-0.097l0.097992,-0.971001l1.746002,-2.619003z" stroke-miterlimit="2.414" stroke-linejoin="bevel" stroke-width="0" stroke="#000000" fill="#666666" fill-rule="evenodd"/>
      <path d="m295.246002,119.375999l-2.132996,-3.687996l-0.291992,-3.686005l0.483978,-2.521996l1.358002,-2.038002h1.843018l-1.261017,2.233002l-0.773987,2.134995l-0.388,2.230003l0.289001,2.035995l0.873993,3.300003z" stroke-miterlimit="2.414" stroke-linejoin="bevel" stroke-width="0" stroke="#000000" fill="#666666" fill-rule="evenodd"/>
      <path d="m372.951996,114.817001l10.769989,1.938995h2.13501l1.550995,-0.484993l1.552002,-0.388l-0.098999,2.425995l-1.065979,1.552002l-1.938019,0.873001l-3.10498,0.292l-1.455017,1.260002l-1.553986,-0.291l-3.97702,-3.492004l-2.813995,-3.685997z" stroke-miterlimit="2.414" stroke-linejoin="bevel" stroke-width="0" stroke="#000000" fill="#666666" fill-rule="evenodd"/>
      <path d="m360.825012,115.788002l1.845001,2.714996h-1.845001l-1.937988,-0.776001l0.967987,-0.969994l0.970001,-0.969002z" stroke-miterlimit="2.414" stroke-linejoin="bevel" stroke-width="0" stroke="#000000" fill="#666666" fill-rule="evenodd"/>
      <path d="m344.625,119.861l-1.647003,1.066002l-1.748993,0.292l-2.812012,-0.874001l0.872009,-1.842003l2.037994,-0.68h1.649994l1.357025,0.874001l0.290985,1.164001z" stroke-miterlimit="2.414" stroke-linejoin="bevel" stroke-width="0" stroke="#000000" fill="#666666" fill-rule="evenodd"/>
      <path d="m281.567993,141.688004l-2.71701,1.939987l-4.654999,-1.065994l-7.471008,-5.434998l5.530029,-1.936996l4.656982,2.811005l4.656006,3.686996z" stroke-miterlimit="2.414" stroke-linejoin="bevel" stroke-width="0" stroke="#000000" fill="#666666" fill-rule="evenodd"/>
      <path d="m352.871002,141.593002l-1.355988,0.095001l-0.292023,-1.067001l0.484009,-1.843002l1.649994,-0.776001l1.358002,0.098999l0.678009,1.650009l-0.484009,0.677994l-2.037994,1.164001z" stroke-miterlimit="2.414" stroke-linejoin="bevel" stroke-width="0" stroke="#000000" fill="#666666" fill-rule="evenodd"/>
      <path d="m277.881012,148.287003l-5.625,0.869995l-1.845001,-0.869995l2.815002,-1.847l2.812012,0.873993l1.842987,0.973007z" stroke-miterlimit="2.414" stroke-linejoin="bevel" stroke-width="0" stroke="#000000" fill="#666666" fill-rule="evenodd"/>
      <path d="m324.446014,163.128998l-3.687012,0.968002l-1.550995,1.358994l-1.167023,1.552002l-0.773987,2.331009l0.291016,3.196991l0.390991,1.748001l-3.785004,-1.748001l-0.873016,-1.936996l0.389008,-1.942001l1.067993,-1.843002l1.649017,-1.358002l2.229004,-1.358994l2.134003,-0.968002h3.686005l0,0z" stroke-miterlimit="2.414" stroke-linejoin="bevel" stroke-width="0" stroke="#000000" fill="#666666" fill-rule="evenodd"/>
      <path d="m341.229004,181.755005l-3.687012,2.811996l-0.967987,1.843002l1.842987,0.972992l2.812012,-0.972992l3.687988,-3.686996l9.313019,5.528992l8.440002,7.470001l9.312988,13.098007l1.843994,5.526993l-1.843994,3.785004h-0.971008l-0.871002,-0.969009l-2.815979,-4.65799l-1.843018,-4.654007l-0.968994,1.841995l-0.872986,-0.872986l-2.814026,3.685989h-1.937988l-1.747009,-0.869995l-2.910004,-2.815002l-3.687988,-7.470001l-2.812988,-2.813004l-1.843018,-0.873993l2.813019,-1.940994l1.842987,-1.744003h-11.252991l2.912994,-3.785004l0.872009,-0.968002v-1.843002h-4.657013l-4.559998,1.843002l0.873993,-2.815002l-0.873993,-1.843002l-4.752991,-0.969986l-3.686005,0.969986l2.714996,-2.811996l6.597992,-3.685989l3.686005,1.936996l0.872009,1.748993h1.938995l0,-0.000992z" stroke-miterlimit="2.414" stroke-linejoin="bevel" stroke-width="0" stroke="#000000" fill="#666666" fill-rule="evenodd"/>
      <path d="m476.171997,47.396l2.423004,1.747002l1.457001,-0.486004l0.776001,-0.292l0.968994,-0.678997" stroke-miterlimit="2.414" stroke-linejoin="bevel" stroke-width="0" stroke="#000000" fill="#666666" fill-rule="evenodd"/>
      <path d="m461.135986,25.177999l-1.649994,-0.192999h-1.743988l-2.622009,0.484999l0.388,-1.647999l0.968018,-1.455l1.651001,-0.68l1.649994,0.580999l0.872986,0.583l1.067017,1.552l0.191986,0.775h-0.77301l0,0z" stroke-miterlimit="2.414" stroke-linejoin="bevel" stroke-width="0" stroke="#000000" fill="#666666" fill-rule="evenodd"/>
      <path d="m454.148987,51.757999l-2.618011,-0.388l-2.521973,-0.772999l-1.554016,-1.166l-0.872009,-1.841999" stroke-miterlimit="2.414" stroke-linejoin="bevel" stroke-width="0" stroke="#000000" fill="#666666" fill-rule="evenodd"/>
      <path d="m461.135986,31.873001l0.582001,-0.775002l-0.972992,-1.358h-1.453003l-0.682007,0.969999l0.196991,0.68l0.970001,0.776001l1.359009,-0.292999z" stroke-miterlimit="2.414" stroke-linejoin="bevel" stroke-width="0" stroke="#000000" fill="#666666" fill-rule="evenodd"/>
      <path d="m474.617004,73.104004l2.81601,-2.038002l-0.682007,2.521996h-0.872009l-0.872009,-0.483994h-0.389984l0,0z" stroke-miterlimit="2.414" stroke-linejoin="bevel" stroke-width="0" stroke="#000000" fill="#666666" fill-rule="evenodd"/>
      <path d="m257.703003,62.043999l-2.811005,2.134003l-2.621002,3.685997l-1.649994,0.583l-1.162003,-0.778l0.192993,-1.747002l1.358017,-1.550995l1.938995,-1.067001l1.942017,-1.260002h2.811981l0,0z" stroke-miterlimit="2.414" stroke-linejoin="bevel" stroke-width="0" stroke="#000000" fill="#666666" fill-rule="evenodd"/>
      <path d="m346.470001,72.229004l0.289001,0.776001l-0.289001,1.066994l-5.04599,2.814003l-1.356018,-0.388l-0.390991,-0.875l0.098999,-1.551003l0.776001,-1.066994l1.164001,-0.388l3.687988,-0.484001l1.06601,0.096001z" stroke-miterlimit="2.414" stroke-linejoin="bevel" stroke-width="0" stroke="#000000" fill="#666666" fill-rule="evenodd"/>
      <path d="m366.257996,85.130997l-0.484985,-0.775993l-1.06601,-0.387001l-5.237,2.328995l-0.582001,1.067001l0.388,1.064003l1.260986,0.679001l1.357025,0.292l1.069,-0.775002l2.714996,-2.621002l0.579987,-0.872002z" stroke-miterlimit="2.414" stroke-linejoin="bevel" stroke-width="0" stroke="#000000" fill="#666666" fill-rule="evenodd"/>
      <path d="m374.311005,63.791v0.871994l-0.388,0.195007l-2.911011,0.289001l-1.552979,-0.096008l-0.970001,-1.938995l0.875,-0.875l4.752991,0.388l0.194,1.166z" stroke-miterlimit="2.414" stroke-linejoin="bevel" stroke-width="0" stroke="#000000" fill="#666666" fill-rule="evenodd"/>
      <path d="m241.794006,51.370998l2.814011,-0.871998h1.259995h1.067993h1.06601l9.21701,-5.140999l4.268982,-1.746002l3.394989,-0.775997l4.461029,-0.583004l-1.453003,-1.066998l-0.486023,-0.875l0.486023,-1.259998l-0.290009,-0.874001l-1.457001,-0.386002l-2.520996,0.191998l-4.075012,1.456001l-4.269989,1.940998l-4.460999,2.522003l-3.202011,2.715l-3.006989,2.813l-2.814011,1.940998z" stroke-miterlimit="2.414" stroke-linejoin="bevel" stroke-width="0" stroke="#000000" fill="#666666" fill-rule="evenodd"/>
      <path d="m403.023987,103.952003l-0.774994,1.647995l-2.230011,1.262001l-1.553986,-0.098999l-0.968994,-1.939003l0.873993,-0.971001l2.91098,-0.871994l1.743011,0.971001z" stroke-miterlimit="2.414" stroke-linejoin="bevel" stroke-width="0" stroke="#000000" fill="#666666" fill-rule="evenodd"/>
      <path d="m402.347992,110.547997l0.291992,0.971001l-0.291992,1.067001l-6.501007,2.618004l-1.744995,-0.194l-0.583008,-0.969002l0.192993,-1.455002l0.875,-1.067001l1.550018,-0.486l4.852997,-0.580994l1.358002,0.095993z" stroke-miterlimit="2.414" stroke-linejoin="bevel" stroke-width="0" stroke="#000000" fill="#666666" fill-rule="evenodd"/>
      <path d="m248.197006,78.826996l-7.664001,2.229004l-1.455002,1.262001l-1.356995,1.552002v1.940994v1.939003l0.970001,1.263l0.582001,1.260002l-0.873001,1.262001l-1.940002,0.871994l-0.291992,1.359001l0.291992,0.873001l1.552002,0.389999l1.938995,-0.389999l3.201004,-1.261002l2.134995,-0.583l0.970001,-1.259995l-0.289993,-1.262001l-0.680008,-1.940002l0.388,-1.941002l0.582001,-2.521996l1.650009,-1.841003l1.261002,-1.360001v-0.580994l-0.971008,-1.261009z" stroke-miterlimit="2.414" stroke-linejoin="bevel" stroke-width="0" stroke="#000000" fill="#666666" fill-rule="evenodd"/>
      <path d="m225.011993,81.347v-2.813995l-0.677994,-1.26001l-1.261002,-1.357994h-1.261002l-0.970993,0.971001l-0.971008,2.134003v2.326996l0.680008,2.233002l0.970001,0.583h1.261002l1.261002,-0.292999l-0.969009,2.909996l0.677002,1.553001l1.261993,0.971001h1.552002l1.940002,-0.679001l1.940002,-1.845001l1.552994,-1.938995l0.872009,-2.522003v-1.938995l-0.872009,-1.55101h-1.261002l-1.939987,0.193008l-3.493011,2.326996h-0.291l0,-0.001999z" stroke-miterlimit="2.414" stroke-linejoin="bevel" stroke-width="0" stroke="#000000" fill="#666666" fill-rule="evenodd"/>
      <path d="m208.132004,75.915001l-0.679001,2.230995l0.679001,1.94101l0.968994,1.259995h1.844009l1.551987,-0.969002l2.328003,-2.232002l2.23201,-3.490997l1.552994,-2.813004l-0.584,-2.232994l-0.968994,-0.677002l-1.940002,-0.389999l-2.62001,1.262001l-2.132996,2.037994l-2.231995,4.073006z" stroke-miterlimit="2.414" stroke-linejoin="bevel" stroke-width="0" stroke="#000000" fill="#666666" fill-rule="evenodd"/>
      <path d="m207.453995,66.407997l2.520996,-0.678001l3.300003,-0.871994l1.843002,-1.361l0.580994,-1.551003l-0.192993,-1.938999l-1.649002,-1.262001h-0.969009l-2.231995,0.583l-2.231995,1.357002l-2.230011,2.522999l-0.291,1.842995l0.677002,0.679001l0.874008,0.678001z" stroke-miterlimit="2.414" stroke-linejoin="bevel" stroke-width="0" stroke="#000000" fill="#666666" fill-rule="evenodd"/>
      <path d="m252.85199,103.952003l3.203003,-1.650002l2.911011,-0.970001l2.812988,-0.68l2.52002,0.68l3.492981,0.970001l2.233002,1.650002l0.678009,1.938995l-0.291992,1.843002l1.845001,1.941002l0.291992,1.938995l-0.291992,1.455002l-0.971008,0.388h-1.843018l-0.970001,-0.679001l-0.681,-1.552002l-0.289978,-1.262001h-2.230011l-3.492004,0.292h-2.812988l-2.230011,-0.580994l-2.328979,-0.971001l-1.164001,-1.262001l-0.391022,-1.551003v-1.938995l0,0z" stroke-miterlimit="2.414" stroke-linejoin="bevel" stroke-width="0" stroke="#000000" fill="#666666" fill-rule="evenodd"/>
      <path d="m260.229004,144.212006l0.289001,0.677002l1.261993,1.263992l1.649994,0.287994l1.84201,-0.287994l0.971008,-0.972l0.289978,-0.968994l-0.289978,-2.134995l-0.971008,-1.649002l-0.972992,-1.650009l-0.869019,-0.291992l-1.263977,0.582993l-1.358032,1.649994l-0.578979,3.493011z" stroke-miterlimit="2.414" stroke-linejoin="bevel" stroke-width="0" stroke="#000000" fill="#666666" fill-rule="evenodd"/>
      <path d="m210.072006,87.557999l-0.582001,-1.747002l0.874008,-2.037994l1.841995,-1.650002l2.813004,-1.648003h2.134995l0.872009,0.388l0.584,1.067001l-0.195007,1.649002l-0.776993,1.842995l-2.619003,2.522003l-2.231003,0.775002h-1.455002l-1.261002,-1.161003z" stroke-miterlimit="2.414" stroke-linejoin="bevel" stroke-width="0" stroke="#000000" fill="#666666" fill-rule="evenodd"/>
     </g>
    </g>
   </g>
  </switch>
 </g>
</svg>
